<svg xmlns="http://www.w3.org/2000/svg" xmlns:xlink="http://www.w3.org/1999/xlink" style="enable-background:new 0 0 508 508" id="Capa_1" width="512" height="512" x="0" y="0" version="1.1" viewBox="0 0 508 508" xml:space="preserve"><g><g><path fill="#20d34a" d="M0,57.35v360.5h73.7v32.8h360.5v-32.8H508V57.35H0z M90.1,434.25v-16.4h327.7v16.4H90.1z M491.6,401.45H16.4V73.65h475.2 V401.45z"/></g></g><g><g><path fill="#20d34a" d="M458.8,106.45H49.2v262.2h409.7v-262.2H458.8z M442.4,352.25H65.5v-98.3H139l40.8-72.7l73.7,147.5l74.2-131.8l31.9,57.1 h82.8V352.25z M442.5,237.65h-73.2l-41.5-74.3l-73.3,130.4l-73.7-147.5l-51.3,91.2h-64v-114.6h377V237.65z"/></g></g><g><g><rect width="16.4" height="16.4" x="278.6" y="376.85" fill="#20d34a"/></g></g><g><g><rect width="16.4" height="16.4" x="245.8" y="376.85" fill="#20d34a"/></g></g><g><g><rect width="16.4" height="16.4" x="213" y="376.85" fill="#20d34a"/></g></g></svg>